{
	"asset":{
		"generator":"Khronos glTF Blender I/O v3.6.27",
		"version":"2.0"
	},
	"extensionsUsed":[
		"KHR_materials_specular",
		"KHR_materials_ior"
	],
	"scene":0,
	"scenes":[
		{
			"name":"Scene",
			"nodes":[
				0,
				1,
				2,
				3,
				4,
				5,
				6,
				7,
				8,
				9,
				10,
				11,
				12,
				13,
				14,
				15
			]
		}
	],
	"nodes":[
		{
			"mesh":0,
			"name":"Plane.003",
			"rotation":[
				0.0038875683676451445,
				-0.0038875676691532135,
				-0.7070959806442261,
				0.7070961594581604
			],
			"scale":[
				0.08061914145946503,
				1.3445849418640137,
				0.5126748085021973
			],
			"translation":[
				-0.8715500235557556,
				2.6410043239593506,
				0.047156449407339096
			]
		},
		{
			"mesh":1,
			"name":"Plane.004",
			"rotation":[
				0.5027414560317993,
				-0.5027413368225098,
				-0.4972434639930725,
				0.4972435235977173
			],
			"scale":[
				0.08061914145946503,
				1.3445849418640137,
				0.5126748085021973
			],
			"translation":[
				-0.2921344041824341,
				2.6410043239593506,
				0.6733453869819641
			]
		},
		{
			"mesh":2,
			"name":"Cylinder.004",
			"rotation":[
				0,
				-0.7109837532043457,
				0,
				0.7032084465026855
			],
			"scale":[
				0.08406268060207367,
				0.29880228638648987,
				0.08406268060207367
			],
			"translation":[
				-0.9953157305717468,
				2.777364492416382,
				-0.2653645873069763
			]
		},
		{
			"mesh":3,
			"name":"Cylinder",
			"rotation":[
				-0.7070961594581604,
				0.7070959806442261,
				-0.0038876361213624477,
				0.003887636587023735
			],
			"scale":[
				0.06937123835086823,
				0.03323695436120033,
				0.06937124580144882
			],
			"translation":[
				-0.9209033846855164,
				2.622006893157959,
				-0.262217253446579
			]
		},
		{
			"mesh":4,
			"name":"Cube.001",
			"rotation":[
				0,
				-0.7109837532043457,
				0,
				0.7032084465026855
			],
			"scale":[
				0.623555064201355,
				0.10048441588878632,
				0.5867457985877991
			],
			"translation":[
				-0.2865046262741089,
				2.6347415447235107,
				0.04951850324869156
			]
		},
		{
			"mesh":5,
			"name":"Cube.004",
			"rotation":[
				0,
				-0.7109837532043457,
				0,
				0.7032084465026855
			],
			"scale":[
				0.02637222781777382,
				0.02637222595512867,
				0.02637222781777382
			],
			"translation":[
				-0.9951731562614441,
				2.624713897705078,
				-0.2669975757598877
			]
		},
		{
			"mesh":6,
			"name":"Cube.005",
			"rotation":[
				0,
				-0.7109837532043457,
				0,
				0.7032084465026855
			],
			"scale":[
				0.623555064201355,
				0.04642125219106674,
				0.5867457985877991
			],
			"translation":[
				-0.2865046262741089,
				2.7714016437530518,
				0.04951849952340126
			]
		},
		{
			"mesh":7,
			"name":"Cube",
			"rotation":[
				0,
				-0.7109837532043457,
				0,
				0.7032084465026855
			],
			"scale":[
				0.6395606994628906,
				0.631778359413147,
				0.6004332304000854
			],
			"translation":[
				-0.28650474548339844,
				2.0437188148498535,
				0.04951858893036842
			]
		},
		{
			"mesh":8,
			"name":"Text.002",
			"rotation":[
				0.5,
				-0.5,
				0.5,
				0.5
			],
			"scale":[
				0.05296255275607109,
				0.05296255275607109,
				0.05296255275607109
			],
			"translation":[
				-0.8641777038574219,
				1.968381404876709,
				0.22063492238521576
			]
		},
		{
			"mesh":9,
			"name":"Text.003",
			"rotation":[
				0.5,
				-0.5,
				0.5,
				0.5
			],
			"scale":[
				0.12423443794250488,
				0.12423443794250488,
				0.12423443794250488
			],
			"translation":[
				-0.8624997138977051,
				2.067925214767456,
				0.2606176733970642
			]
		},
		{
			"mesh":10,
			"name":"obj1.001",
			"scale":[
				0.014055924490094185,
				0.014055924490094185,
				0.014055924490094185
			],
			"translation":[
				-0.025585386902093887,
				0.36298441886901855,
				-0.22784890234470367
			]
		},
		{
			"mesh":11,
			"name":"obj1.002",
			"scale":[
				0.014055924490094185,
				0.014055924490094185,
				0.014055924490094185
			],
			"translation":[
				-0.024006040766835213,
				1.1963015794754028,
				-0.2279672771692276
			]
		},
		{
			"mesh":12,
			"name":"s1",
			"scale":[
				0.0597134605050087,
				0.14225047826766968,
				0.0597134605050087
			],
			"translation":[
				-0.02677178382873535,
				-0.17286738753318787,
				-0.22610008716583252
			]
		},
		{
			"mesh":13,
			"name":"s2",
			"scale":[
				0.0597134605050087,
				0.14225047826766968,
				0.0597134605050087
			],
			"translation":[
				-0.02677178382873535,
				-1.1686207056045532,
				-0.22610008716583252
			]
		},
		{
			"mesh":14,
			"name":"s3",
			"scale":[
				0.0597134605050087,
				0.14225047826766968,
				0.0597134605050087
			],
			"translation":[
				-0.02677178382873535,
				-2.1643738746643066,
				-0.22610008716583252
			]
		},
		{
			"mesh":15,
			"name":"s4",
			"scale":[
				0.0597134605050087,
				0.14225047826766968,
				0.0597134605050087
			],
			"translation":[
				-0.02677178382873535,
				-3.1601271629333496,
				-0.22610008716583252
			]
		}
	],
	"materials":[
		{
			"doubleSided":true,
			"name":"Nikon.007",
			"pbrMetallicRoughness":{
				"baseColorFactor":[
					0.011087627150118351,
					0.011087627150118351,
					0.011087627150118351,
					1
				],
				"metallicFactor":0
			}
		},
		{
			"doubleSided":true,
			"name":"Nikon.006",
			"pbrMetallicRoughness":{
				"baseColorFactor":[
					0.011087627150118351,
					0.011087627150118351,
					0.011087627150118351,
					1
				],
				"metallicFactor":0
			}
		},
		{
			"doubleSided":true,
			"name":"Nikon.005",
			"pbrMetallicRoughness":{
				"baseColorFactor":[
					0.011087627150118351,
					0.011087627150118351,
					0.011087627150118351,
					1
				],
				"metallicFactor":0
			}
		},
		{
			"doubleSided":true,
			"name":"Material.005",
			"pbrMetallicRoughness":{
				"baseColorFactor":[
					0.8000000715255737,
					0.379596084356308,
					0.07642509043216705,
					1
				],
				"roughnessFactor":0.39099228382110596
			}
		},
		{
			"doubleSided":true,
			"name":"Nikon.003",
			"pbrMetallicRoughness":{
				"baseColorFactor":[
					0.011087627150118351,
					0.011087627150118351,
					0.011087627150118351,
					1
				],
				"metallicFactor":0
			}
		},
		{
			"doubleSided":true,
			"name":"Nikon.008",
			"pbrMetallicRoughness":{
				"baseColorFactor":[
					1,
					0.08133473992347717,
					0,
					1
				],
				"metallicFactor":0
			}
		},
		{
			"doubleSided":true,
			"name":"Nikon.009",
			"pbrMetallicRoughness":{
				"baseColorTexture":{
					"index":0,
					"texCoord":1
				},
				"metallicFactor":0
			}
		},
		{
			"doubleSided":true,
			"name":"Material",
			"pbrMetallicRoughness":{
				"baseColorFactor":[
					1,
					0.08133500069379807,
					0,
					1
				],
				"metallicFactor":0,
				"roughnessFactor":0.5
			}
		},
		{
			"doubleSided":true,
			"name":"Cross Brushed Metal.004",
			"pbrMetallicRoughness":{}
		},
		{
			"doubleSided":true,
			"extensions":{
				"KHR_materials_specular":{
					"specularColorFactor":[
						2.034146196288876,
						2.034146196288876,
						2.034146196288876
					]
				},
				"KHR_materials_ior":{
					"ior":1.4500000476837158
				}
			},
			"name":"Material.001",
			"pbrMetallicRoughness":{
				"baseColorFactor":[
					0.800000011920929,
					0.800000011920929,
					0.800000011920929,
					1
				],
				"roughnessFactor":0.2568807303905487
			}
		},
		{
			"doubleSided":true,
			"name":"Cross Brushed Metal",
			"pbrMetallicRoughness":{}
		}
	],
	"meshes":[
		{
			"name":"Plane.003",
			"primitives":[
				{
					"attributes":{
						"POSITION":0,
						"NORMAL":1,
						"TEXCOORD_0":2
					},
					"indices":3,
					"material":0
				}
			]
		},
		{
			"name":"Plane.004",
			"primitives":[
				{
					"attributes":{
						"POSITION":4,
						"NORMAL":5,
						"TEXCOORD_0":6
					},
					"indices":3,
					"material":1
				}
			]
		},
		{
			"name":"Cylinder.003",
			"primitives":[
				{
					"attributes":{
						"POSITION":7,
						"NORMAL":8,
						"TEXCOORD_0":9
					},
					"indices":10,
					"material":2
				}
			]
		},
		{
			"name":"Cylinder",
			"primitives":[
				{
					"attributes":{
						"POSITION":11,
						"NORMAL":12,
						"TEXCOORD_0":13
					},
					"indices":14,
					"material":3
				}
			]
		},
		{
			"name":"Cube.003",
			"primitives":[
				{
					"attributes":{
						"POSITION":15,
						"NORMAL":16,
						"TEXCOORD_0":17
					},
					"indices":18,
					"material":4
				}
			]
		},
		{
			"name":"Cube.002",
			"primitives":[
				{
					"attributes":{
						"POSITION":19,
						"NORMAL":20,
						"TEXCOORD_0":21
					},
					"indices":22,
					"material":3
				}
			]
		},
		{
			"name":"Cube.001",
			"primitives":[
				{
					"attributes":{
						"POSITION":23,
						"NORMAL":24,
						"TEXCOORD_0":25
					},
					"indices":26,
					"material":5
				}
			]
		},
		{
			"name":"Cube",
			"primitives":[
				{
					"attributes":{
						"POSITION":27,
						"NORMAL":28,
						"TEXCOORD_0":29,
						"TEXCOORD_1":30
					},
					"indices":31,
					"material":6
				}
			]
		},
		{
			"name":"Text.004",
			"primitives":[
				{
					"attributes":{
						"POSITION":32,
						"NORMAL":33,
						"TEXCOORD_0":34
					},
					"indices":35,
					"material":7
				}
			]
		},
		{
			"name":"Text.005",
			"primitives":[
				{
					"attributes":{
						"POSITION":36,
						"NORMAL":37,
						"TEXCOORD_0":38
					},
					"indices":39
				}
			]
		},
		{
			"name":"obj1.001",
			"primitives":[
				{
					"attributes":{
						"POSITION":40,
						"NORMAL":41,
						"TEXCOORD_0":42
					},
					"indices":43,
					"material":8
				}
			]
		},
		{
			"name":"obj1.003",
			"primitives":[
				{
					"attributes":{
						"POSITION":44,
						"NORMAL":45,
						"TEXCOORD_0":46
					},
					"indices":47,
					"material":9
				}
			]
		},
		{
			"name":"Cylinder.001",
			"primitives":[
				{
					"attributes":{
						"POSITION":48,
						"NORMAL":49,
						"TEXCOORD_0":50
					},
					"indices":51,
					"material":10
				}
			]
		},
		{
			"name":"Cylinder.002",
			"primitives":[
				{
					"attributes":{
						"POSITION":52,
						"NORMAL":53,
						"TEXCOORD_0":54
					},
					"indices":51,
					"material":10
				}
			]
		},
		{
			"name":"Cylinder.004",
			"primitives":[
				{
					"attributes":{
						"POSITION":55,
						"NORMAL":56,
						"TEXCOORD_0":57
					},
					"indices":51,
					"material":10
				}
			]
		},
		{
			"name":"Cylinder.005",
			"primitives":[
				{
					"attributes":{
						"POSITION":58,
						"NORMAL":59,
						"TEXCOORD_0":60
					},
					"indices":51,
					"material":10
				}
			]
		}
	],
	"textures":[
		{
			"sampler":0,
			"source":0
		}
	],
	"images":[
		{
			"bufferView":32,
			"mimeType":"image/png",
			"name":"utmaps@1.25x"
		}
	],
	"accessors":[
		{
			"bufferView":0,
			"componentType":5126,
			"count":96,
			"max":[
				1.0306832790374756,
				0.005317298229783773,
				1.0023972988128662
			],
			"min":[
				-0.9693167209625244,
				-0.005317299161106348,
				-0.9976027011871338
			],
			"type":"VEC3"
		},
		{
			"bufferView":1,
			"componentType":5126,
			"count":96,
			"type":"VEC3"
		},
		{
			"bufferView":2,
			"componentType":5126,
			"count":96,
			"type":"VEC2"
		},
		{
			"bufferView":3,
			"componentType":5123,
			"count":252,
			"type":"SCALAR"
		},
		{
			"bufferView":4,
			"componentType":5126,
			"count":96,
			"max":[
				1.0306832790374756,
				0.005317298229783773,
				1.0023972988128662
			],
			"min":[
				-0.9693167209625244,
				-0.005317299161106348,
				-0.9976027011871338
			],
			"type":"VEC3"
		},
		{
			"bufferView":5,
			"componentType":5126,
			"count":96,
			"type":"VEC3"
		},
		{
			"bufferView":6,
			"componentType":5126,
			"count":96,
			"type":"VEC2"
		},
		{
			"bufferView":7,
			"componentType":5126,
			"count":15550,
			"max":[
				0.5414936542510986,
				1.5306061506271362,
				0.5407796502113342
			],
			"min":[
				-0.5414934754371643,
				-0.41590616106987,
				-0.5417318344116211
			],
			"type":"VEC3"
		},
		{
			"bufferView":8,
			"componentType":5126,
			"count":15550,
			"type":"VEC3"
		},
		{
			"bufferView":9,
			"componentType":5126,
			"count":15550,
			"type":"VEC2"
		},
		{
			"bufferView":10,
			"componentType":5123,
			"count":23520,
			"type":"SCALAR"
		},
		{
			"bufferView":11,
			"componentType":5126,
			"count":84,
			"max":[
				0.8660253882408142,
				1.0405588150024414,
				1.0000001192092896
			],
			"min":[
				-0.8660253882408142,
				-1.7064462900161743,
				-0.9999998807907104
			],
			"type":"VEC3"
		},
		{
			"bufferView":12,
			"componentType":5126,
			"count":84,
			"type":"VEC3"
		},
		{
			"bufferView":13,
			"componentType":5126,
			"count":84,
			"type":"VEC2"
		},
		{
			"bufferView":14,
			"componentType":5123,
			"count":132,
			"type":"SCALAR"
		},
		{
			"bufferView":15,
			"componentType":5126,
			"count":11256,
			"max":[
				1.0000001192092896,
				1.0356920957565308,
				1.0000001192092896
			],
			"min":[
				-0.9999998807907104,
				-0.9643079042434692,
				-0.9999998211860657
			],
			"type":"VEC3"
		},
		{
			"bufferView":16,
			"componentType":5126,
			"count":11256,
			"type":"VEC3"
		},
		{
			"bufferView":17,
			"componentType":5126,
			"count":11256,
			"type":"VEC2"
		},
		{
			"bufferView":18,
			"componentType":5123,
			"count":17388,
			"type":"SCALAR"
		},
		{
			"bufferView":19,
			"componentType":5126,
			"count":24,
			"max":[
				1.8579349517822266,
				1.8579347133636475,
				1.8579363822937012
			],
			"min":[
				-1.8579349517822266,
				-1.8579347133636475,
				-1.8579363822937012
			],
			"type":"VEC3"
		},
		{
			"bufferView":20,
			"componentType":5126,
			"count":24,
			"type":"VEC3"
		},
		{
			"bufferView":21,
			"componentType":5126,
			"count":24,
			"type":"VEC2"
		},
		{
			"bufferView":22,
			"componentType":5123,
			"count":36,
			"type":"SCALAR"
		},
		{
			"bufferView":23,
			"componentType":5126,
			"count":10920,
			"max":[
				1.0000001192092896,
				0.991935670375824,
				1.000000238418579
			],
			"min":[
				-0.9999998807907104,
				-1.0080642700195312,
				-0.9999998211860657
			],
			"type":"VEC3"
		},
		{
			"bufferView":24,
			"componentType":5126,
			"count":10920,
			"type":"VEC3"
		},
		{
			"bufferView":25,
			"componentType":5126,
			"count":10920,
			"type":"VEC2"
		},
		{
			"bufferView":26,
			"componentType":5123,
			"count":16380,
			"type":"SCALAR"
		},
		{
			"bufferView":27,
			"componentType":5126,
			"count":384,
			"max":[
				0.9508365392684937,
				0.8323617577552795,
				0.9508365988731384
			],
			"min":[
				-0.9508365392684937,
				-0.31105706095695496,
				-0.9508365988731384
			],
			"type":"VEC3"
		},
		{
			"bufferView":28,
			"componentType":5126,
			"count":384,
			"type":"VEC3"
		},
		{
			"bufferView":29,
			"componentType":5126,
			"count":384,
			"type":"VEC2"
		},
		{
			"bufferView":30,
			"componentType":5126,
			"count":384,
			"type":"VEC2"
		},
		{
			"bufferView":31,
			"componentType":5123,
			"count":564,
			"type":"SCALAR"
		},
		{
			"bufferView":33,
			"componentType":5126,
			"count":1248,
			"max":[
				4.696666717529297,
				0,
				0.38902777433395386
			],
			"min":[
				-4.696666717529297,
				0,
				-0.38902777433395386
			],
			"type":"VEC3"
		},
		{
			"bufferView":34,
			"componentType":5126,
			"count":1248,
			"type":"VEC3"
		},
		{
			"bufferView":35,
			"componentType":5126,
			"count":1248,
			"type":"VEC2"
		},
		{
			"bufferView":36,
			"componentType":5123,
			"count":3684,
			"type":"SCALAR"
		},
		{
			"bufferView":37,
			"componentType":5126,
			"count":860,
			"max":[
				1.6317797899246216,
				0,
				0.37002813816070557
			],
			"min":[
				-1.6317799091339111,
				0,
				-0.37002813816070557
			],
			"type":"VEC3"
		},
		{
			"bufferView":38,
			"componentType":5126,
			"count":860,
			"type":"VEC3"
		},
		{
			"bufferView":39,
			"componentType":5126,
			"count":860,
			"type":"VEC2"
		},
		{
			"bufferView":40,
			"componentType":5123,
			"count":2556,
			"type":"SCALAR"
		},
		{
			"bufferView":41,
			"componentType":5126,
			"count":4575,
			"max":[
				9.117924690246582,
				107.8370590209961,
				9.104269981384277
			],
			"min":[
				-9.085749626159668,
				-285.762939453125,
				-9.089550971984863
			],
			"type":"VEC3"
		},
		{
			"bufferView":42,
			"componentType":5126,
			"count":4575,
			"type":"VEC3"
		},
		{
			"bufferView":43,
			"componentType":5126,
			"count":4575,
			"type":"VEC2"
		},
		{
			"bufferView":44,
			"componentType":5123,
			"count":12174,
			"type":"SCALAR"
		},
		{
			"bufferView":45,
			"componentType":5126,
			"count":1454,
			"max":[
				42.383914947509766,
				2.4855189323425293,
				42.520511627197266
			],
			"min":[
				-42.57577133178711,
				-2.5144810676574707,
				-42.479488372802734
			],
			"type":"VEC3"
		},
		{
			"bufferView":46,
			"componentType":5126,
			"count":1454,
			"type":"VEC3"
		},
		{
			"bufferView":47,
			"componentType":5126,
			"count":1454,
			"type":"VEC2"
		},
		{
			"bufferView":48,
			"componentType":5123,
			"count":3462,
			"type":"SCALAR"
		},
		{
			"bufferView":49,
			"componentType":5126,
			"count":258,
			"max":[
				1,
				1,
				1
			],
			"min":[
				-1,
				-1,
				-1
			],
			"type":"VEC3"
		},
		{
			"bufferView":50,
			"componentType":5126,
			"count":258,
			"type":"VEC3"
		},
		{
			"bufferView":51,
			"componentType":5126,
			"count":258,
			"type":"VEC2"
		},
		{
			"bufferView":52,
			"componentType":5123,
			"count":756,
			"type":"SCALAR"
		},
		{
			"bufferView":53,
			"componentType":5126,
			"count":258,
			"max":[
				1,
				1.0000004768371582,
				1
			],
			"min":[
				-1,
				-0.9999995231628418,
				-1
			],
			"type":"VEC3"
		},
		{
			"bufferView":54,
			"componentType":5126,
			"count":258,
			"type":"VEC3"
		},
		{
			"bufferView":55,
			"componentType":5126,
			"count":258,
			"type":"VEC2"
		},
		{
			"bufferView":56,
			"componentType":5126,
			"count":258,
			"max":[
				1,
				1.0000009536743164,
				1
			],
			"min":[
				-1,
				-0.9999990463256836,
				-1
			],
			"type":"VEC3"
		},
		{
			"bufferView":57,
			"componentType":5126,
			"count":258,
			"type":"VEC3"
		},
		{
			"bufferView":58,
			"componentType":5126,
			"count":258,
			"type":"VEC2"
		},
		{
			"bufferView":59,
			"componentType":5126,
			"count":258,
			"max":[
				1,
				1.0000019073486328,
				1
			],
			"min":[
				-1,
				-0.9999980926513672,
				-1
			],
			"type":"VEC3"
		},
		{
			"bufferView":60,
			"componentType":5126,
			"count":258,
			"type":"VEC3"
		},
		{
			"bufferView":61,
			"componentType":5126,
			"count":258,
			"type":"VEC2"
		}
	],
	"bufferViews":[
		{
			"buffer":0,
			"byteLength":1152,
			"byteOffset":0,
			"target":34962
		},
		{
			"buffer":0,
			"byteLength":1152,
			"byteOffset":1152,
			"target":34962
		},
		{
			"buffer":0,
			"byteLength":768,
			"byteOffset":2304,
			"target":34962
		},
		{
			"buffer":0,
			"byteLength":504,
			"byteOffset":3072,
			"target":34963
		},
		{
			"buffer":0,
			"byteLength":1152,
			"byteOffset":3576,
			"target":34962
		},
		{
			"buffer":0,
			"byteLength":1152,
			"byteOffset":4728,
			"target":34962
		},
		{
			"buffer":0,
			"byteLength":768,
			"byteOffset":5880,
			"target":34962
		},
		{
			"buffer":0,
			"byteLength":186600,
			"byteOffset":6648,
			"target":34962
		},
		{
			"buffer":0,
			"byteLength":186600,
			"byteOffset":193248,
			"target":34962
		},
		{
			"buffer":0,
			"byteLength":124400,
			"byteOffset":379848,
			"target":34962
		},
		{
			"buffer":0,
			"byteLength":47040,
			"byteOffset":504248,
			"target":34963
		},
		{
			"buffer":0,
			"byteLength":1008,
			"byteOffset":551288,
			"target":34962
		},
		{
			"buffer":0,
			"byteLength":1008,
			"byteOffset":552296,
			"target":34962
		},
		{
			"buffer":0,
			"byteLength":672,
			"byteOffset":553304,
			"target":34962
		},
		{
			"buffer":0,
			"byteLength":264,
			"byteOffset":553976,
			"target":34963
		},
		{
			"buffer":0,
			"byteLength":135072,
			"byteOffset":554240,
			"target":34962
		},
		{
			"buffer":0,
			"byteLength":135072,
			"byteOffset":689312,
			"target":34962
		},
		{
			"buffer":0,
			"byteLength":90048,
			"byteOffset":824384,
			"target":34962
		},
		{
			"buffer":0,
			"byteLength":34776,
			"byteOffset":914432,
			"target":34963
		},
		{
			"buffer":0,
			"byteLength":288,
			"byteOffset":949208,
			"target":34962
		},
		{
			"buffer":0,
			"byteLength":288,
			"byteOffset":949496,
			"target":34962
		},
		{
			"buffer":0,
			"byteLength":192,
			"byteOffset":949784,
			"target":34962
		},
		{
			"buffer":0,
			"byteLength":72,
			"byteOffset":949976,
			"target":34963
		},
		{
			"buffer":0,
			"byteLength":131040,
			"byteOffset":950048,
			"target":34962
		},
		{
			"buffer":0,
			"byteLength":131040,
			"byteOffset":1081088,
			"target":34962
		},
		{
			"buffer":0,
			"byteLength":87360,
			"byteOffset":1212128,
			"target":34962
		},
		{
			"buffer":0,
			"byteLength":32760,
			"byteOffset":1299488,
			"target":34963
		},
		{
			"buffer":0,
			"byteLength":4608,
			"byteOffset":1332248,
			"target":34962
		},
		{
			"buffer":0,
			"byteLength":4608,
			"byteOffset":1336856,
			"target":34962
		},
		{
			"buffer":0,
			"byteLength":3072,
			"byteOffset":1341464,
			"target":34962
		},
		{
			"buffer":0,
			"byteLength":3072,
			"byteOffset":1344536,
			"target":34962
		},
		{
			"buffer":0,
			"byteLength":1128,
			"byteOffset":1347608,
			"target":34963
		},
		{
			"buffer":0,
			"byteLength":128046,
			"byteOffset":1348736
		},
		{
			"buffer":0,
			"byteLength":14976,
			"byteOffset":1476784,
			"target":34962
		},
		{
			"buffer":0,
			"byteLength":14976,
			"byteOffset":1491760,
			"target":34962
		},
		{
			"buffer":0,
			"byteLength":9984,
			"byteOffset":1506736,
			"target":34962
		},
		{
			"buffer":0,
			"byteLength":7368,
			"byteOffset":1516720,
			"target":34963
		},
		{
			"buffer":0,
			"byteLength":10320,
			"byteOffset":1524088,
			"target":34962
		},
		{
			"buffer":0,
			"byteLength":10320,
			"byteOffset":1534408,
			"target":34962
		},
		{
			"buffer":0,
			"byteLength":6880,
			"byteOffset":1544728,
			"target":34962
		},
		{
			"buffer":0,
			"byteLength":5112,
			"byteOffset":1551608,
			"target":34963
		},
		{
			"buffer":0,
			"byteLength":54900,
			"byteOffset":1556720,
			"target":34962
		},
		{
			"buffer":0,
			"byteLength":54900,
			"byteOffset":1611620,
			"target":34962
		},
		{
			"buffer":0,
			"byteLength":36600,
			"byteOffset":1666520,
			"target":34962
		},
		{
			"buffer":0,
			"byteLength":24348,
			"byteOffset":1703120,
			"target":34963
		},
		{
			"buffer":0,
			"byteLength":17448,
			"byteOffset":1727468,
			"target":34962
		},
		{
			"buffer":0,
			"byteLength":17448,
			"byteOffset":1744916,
			"target":34962
		},
		{
			"buffer":0,
			"byteLength":11632,
			"byteOffset":1762364,
			"target":34962
		},
		{
			"buffer":0,
			"byteLength":6924,
			"byteOffset":1773996,
			"target":34963
		},
		{
			"buffer":0,
			"byteLength":3096,
			"byteOffset":1780920,
			"target":34962
		},
		{
			"buffer":0,
			"byteLength":3096,
			"byteOffset":1784016,
			"target":34962
		},
		{
			"buffer":0,
			"byteLength":2064,
			"byteOffset":1787112,
			"target":34962
		},
		{
			"buffer":0,
			"byteLength":1512,
			"byteOffset":1789176,
			"target":34963
		},
		{
			"buffer":0,
			"byteLength":3096,
			"byteOffset":1790688,
			"target":34962
		},
		{
			"buffer":0,
			"byteLength":3096,
			"byteOffset":1793784,
			"target":34962
		},
		{
			"buffer":0,
			"byteLength":2064,
			"byteOffset":1796880,
			"target":34962
		},
		{
			"buffer":0,
			"byteLength":3096,
			"byteOffset":1798944,
			"target":34962
		},
		{
			"buffer":0,
			"byteLength":3096,
			"byteOffset":1802040,
			"target":34962
		},
		{
			"buffer":0,
			"byteLength":2064,
			"byteOffset":1805136,
			"target":34962
		},
		{
			"buffer":0,
			"byteLength":3096,
			"byteOffset":1807200,
			"target":34962
		},
		{
			"buffer":0,
			"byteLength":3096,
			"byteOffset":1810296,
			"target":34962
		},
		{
			"buffer":0,
			"byteLength":2064,
			"byteOffset":1813392,
			"target":34962
		}
	],
	"samplers":[
		{
			"magFilter":9729,
			"minFilter":9987
		}
	],
	"buffers":[
		{
			"byteLength":1815456,
			"uri":"data:application/octet-stream;base64,"
		}
	]
}
